<svg width="166" height="166" viewBox="0 0 166 166" fill="none" xmlns="http://www.w3.org/2000/svg">
<g clip-path="url(#clip0)">
<path d="M93.4786 145.25H57.8024C52.6288 145.25 48.4165 141.038 48.4165 135.864V85.4692C48.4165 80.2956 52.6288 76.0833 57.8024 76.0833H108.19C113.371 76.0833 117.583 80.2956 117.583 85.4692V121.138C117.583 123.905 116.504 126.513 114.554 128.477L100.817 142.214C98.8805 144.143 96.2038 145.25 93.4786 145.25ZM57.8024 83C56.4398 83 55.3332 84.1066 55.3332 85.4692V135.864C55.3332 137.227 56.4398 138.333 57.8024 138.333H93.4717C94.3847 138.333 95.2769 137.967 95.9202 137.323L109.65 123.594C110.307 122.93 110.667 122.058 110.667 121.138V85.4692C110.667 84.1066 109.56 83 108.197 83H57.8024Z" fill="#0689F4"/>
<path d="M77.4595 128.885C76.5396 128.885 75.6612 128.519 75.011 127.875L60.2508 113.115C58.9021 111.766 58.9021 109.574 60.2508 108.225C61.5996 106.876 63.7922 106.876 65.1409 108.225L77.2866 120.371L100.693 93.6309C101.951 92.1922 104.137 92.047 105.569 93.3058C107.007 94.5646 107.153 96.7503 105.894 98.189L80.0601 127.716C79.4307 128.436 78.5316 128.864 77.5771 128.892C77.5356 128.885 77.501 128.885 77.4595 128.885Z" fill="#0689F4"/>
<path d="M148.708 166H17.2917C7.75358 166 0 158.24 0 148.708V31.125C0 21.5938 7.75358 13.8333 17.2917 13.8333H148.708C158.246 13.8333 166 21.5938 166 31.125V148.708C166 158.24 158.246 166 148.708 166ZM17.2917 20.75C11.5716 20.75 6.91667 25.4049 6.91667 31.125V148.708C6.91667 154.428 11.5716 159.083 17.2917 159.083H148.708C154.428 159.083 159.083 154.428 159.083 148.708V31.125C159.083 25.4049 154.428 20.75 148.708 20.75H17.2917Z" fill="#0689F4"/>
<path d="M162.542 55.3334H3.45833C1.54933 55.3334 0 53.784 0 51.875C0 49.966 1.54933 48.4167 3.45833 48.4167H162.542C164.451 48.4167 166 49.966 166 51.875C166 53.784 164.451 55.3334 162.542 55.3334Z" fill="#0689F4"/>
<path d="M38.0417 34.5833C36.1327 34.5833 34.5834 33.034 34.5834 31.125V3.45833C34.5834 1.54933 36.1327 0 38.0417 0C39.9507 0 41.5 1.54933 41.5 3.45833V31.125C41.5 33.034 39.9507 34.5833 38.0417 34.5833Z" fill="#0689F4"/>
<path d="M127.958 34.5833C126.049 34.5833 124.5 33.034 124.5 31.125V3.45833C124.5 1.54933 126.049 0 127.958 0C129.867 0 131.417 1.54933 131.417 3.45833V31.125C131.417 33.034 129.867 34.5833 127.958 34.5833Z" fill="#0689F4"/>
</g>
<defs>
<clipPath id="clip0">
<rect width="166" height="166" fill="white"/>
</clipPath>
</defs>
</svg>
