<svg width="29" height="29" viewBox="0 0 29 29" fill="none" xmlns="http://www.w3.org/2000/svg">
<path d="M23.954 1.74756C23.5209 0.978043 22.6949 0.5 21.7982 0.5H14.5525C13.1953 0.5 12.0912 1.60415 12.0912 2.96132V6.24308C12.0912 7.60026 13.1953 8.7044 14.5525 8.7044H19.4752C19.9275 8.7044 20.2956 9.07245 20.2956 9.52484V15.9698C17.9299 15.3231 15.4362 15.2432 13.0391 15.7308C11.2126 13.9831 8.62576 13.2721 6.04253 13.918C3.45967 14.5638 1.31608 16.6715 0.702553 19.295C0.174955 21.5516 0.689317 23.876 2.11393 25.6721C3.54144 27.472 5.66293 28.5044 7.9343 28.5044C18.6446 28.5044 26.0585 24.4347 28.0465 23.4404C28.3244 23.3015 28.5 23.0174 28.5 22.7066V19.1474C28.5 13.0481 26.928 7.03136 23.954 1.74756ZM26.8591 22.201C24.1937 23.5436 17.4463 26.8635 7.9343 26.8635C6.16685 26.8635 4.51399 26.0576 3.39945 24.6524C2.28803 23.2511 1.88738 21.4345 2.30033 19.6685C2.76426 17.6842 4.42812 16.013 6.44049 15.5098C8.09275 15.0966 9.74922 15.3792 11.0868 16.262C10.4471 16.4818 9.8194 16.7445 9.20828 17.05C8.80298 17.2527 8.63873 17.7455 8.84138 18.1508C9.04397 18.556 9.53678 18.7203 9.94208 18.5177C13.8393 16.5691 18.4927 16.569 22.39 18.5177C22.796 18.7207 23.2885 18.5553 23.4907 18.1508C23.6934 17.7455 23.5291 17.2527 23.1238 17.05C22.7344 16.8553 22.3382 16.6784 21.9365 16.5184V9.52484C21.9365 8.16767 20.8323 7.06352 19.4752 7.06352H18.6547V4.6022C18.6547 4.1491 18.2874 3.78176 17.8343 3.78176H16.1934C15.7403 3.78176 15.373 4.1491 15.373 4.6022C15.373 5.0553 15.7403 5.42264 16.1934 5.42264H17.0138V7.06352H14.5525C14.1001 7.06352 13.7321 6.69547 13.7321 6.24308V2.96132C13.7321 2.50893 14.1001 2.14088 14.5525 2.14088H21.7983C22.1031 2.14088 22.3812 2.29857 22.5241 2.55236C25.3602 7.59101 26.8592 13.3294 26.8592 19.1474V22.201H26.8591Z" fill="white"/>
</svg>
