<svg width="160" height="160" viewBox="0 0 160 160" fill="none" xmlns="http://www.w3.org/2000/svg">
<path d="M134.013 7.12781C131.538 2.73125 126.819 0 121.696 0H80.2983C72.5443 0 66.2358 6.30844 66.2358 14.0625V32.8125C66.2358 40.5666 72.5443 46.875 80.2983 46.875H108.423C111.008 46.875 113.111 48.9778 113.111 51.5625V88.3853C99.5949 84.6903 85.3474 84.2338 71.6514 87.0197C61.2161 77.0344 46.4364 72.9722 31.6774 76.6625C16.9205 80.3522 4.67332 92.3944 1.16801 107.383C-1.84637 120.276 1.09238 133.557 9.23176 143.818C17.3877 154.102 29.5086 160 42.4858 160C103.678 160 146.037 136.748 157.395 131.068C158.983 130.274 159.986 128.651 159.986 126.875V106.54C159.986 71.6925 151.004 37.3162 134.013 7.12781ZM150.611 123.987C135.382 131.657 96.8314 150.625 42.4858 150.625C32.3877 150.625 22.9443 146.021 16.5764 137.992C10.2264 129.986 7.93738 119.607 10.2968 109.517C12.9474 98.1803 22.4536 88.6319 33.9511 85.7569C43.3911 83.3962 52.8552 85.0106 60.4974 90.0547C56.8424 91.3106 53.2561 92.8112 49.7646 94.5569C47.4489 95.7147 46.5105 98.5303 47.6683 100.846C48.8258 103.161 51.6414 104.1 53.9571 102.942C76.2236 91.8091 102.81 91.8088 125.077 102.942C127.396 104.102 130.21 103.157 131.366 100.846C132.524 98.5303 131.585 95.7147 129.27 94.5569C127.045 93.4444 124.781 92.4334 122.486 91.5197V51.5625C122.486 43.8084 116.177 37.5 108.423 37.5H103.736V23.4375C103.736 20.8487 101.637 18.75 99.0483 18.75H89.6733C87.0846 18.75 84.9858 20.8487 84.9858 23.4375C84.9858 26.0263 87.0846 28.125 89.6733 28.125H94.3608V37.5H80.2983C77.7136 37.5 75.6108 35.3972 75.6108 32.8125V14.0625C75.6108 11.4778 77.7136 9.375 80.2983 9.375H121.696C123.438 9.375 125.027 10.2759 125.843 11.7259C142.047 40.5138 150.611 73.2997 150.611 106.54V123.987H150.611Z" fill="#0689F4"/>
</svg>
