<svg width="190" height="122" viewBox="0 0 190 122" fill="none" xmlns="http://www.w3.org/2000/svg">
<path d="M164.323 53.7631C169.887 49.8533 173.571 43.3496 173.571 36.0188C173.571 24.0263 163.872 14.327 151.88 14.327C139.887 14.327 130.188 24.0263 130.188 36.0188C130.188 43.3496 133.835 49.8533 139.436 53.7631C134.662 55.4173 130.301 57.9736 126.617 61.2819C121.541 56.9586 115.564 53.6503 109.023 51.6955C116.955 46.8834 122.293 38.124 122.293 28.1616C122.293 12.9737 110 0.68042 94.812 0.68042C79.6241 0.68042 67.3308 13.0112 67.3308 28.1616C67.3308 38.124 72.6316 46.8834 80.6015 51.6955C74.1353 53.6503 68.2331 56.921 63.1955 61.1691C59.5113 57.9361 55.2256 55.4173 50.5263 53.8007C56.0902 49.8909 59.7744 43.3872 59.7744 36.0564C59.7744 24.0639 50.0752 14.3646 38.0827 14.3646C26.0902 14.3646 16.391 24.0639 16.391 36.0564C16.391 43.3872 20.0376 49.8909 25.6391 53.8007C10.7143 58.9511 0 73.124 0 89.7782V92.2594C0 92.3345 0.075188 92.4097 0.150376 92.4097H46.1278C45.8647 94.4774 45.7143 96.6203 45.7143 98.7631V101.32C45.7143 112.372 54.6617 121.32 65.7143 121.32H123.985C135.038 121.32 143.985 112.372 143.985 101.32V98.7631C143.985 96.6203 143.835 94.4774 143.571 92.4097H189.85C189.925 92.4097 190 92.3345 190 92.2594V89.7782C189.925 73.0864 179.248 58.9135 164.323 53.7631ZM136.203 35.9812C136.203 27.3346 143.233 20.3045 151.88 20.3045C160.526 20.3045 167.556 27.3346 167.556 35.9812C167.556 44.515 160.677 51.4699 152.18 51.6579C152.068 51.6579 151.992 51.6579 151.88 51.6579C151.767 51.6579 151.692 51.6579 151.579 51.6579C143.045 51.5075 136.203 44.5526 136.203 35.9812ZM73.2707 28.1616C73.2707 16.3195 82.8947 6.69546 94.7368 6.69546C106.579 6.69546 116.203 16.3195 116.203 28.1616C116.203 39.5902 107.218 48.9511 95.9774 49.5902C95.5639 49.5902 95.1504 49.5902 94.7368 49.5902C94.3233 49.5902 93.9098 49.5902 93.4962 49.5902C82.2556 48.9511 73.2707 39.5902 73.2707 28.1616ZM22.2932 35.9812C22.2932 27.3346 29.3233 20.3045 37.9699 20.3045C46.6165 20.3045 53.6466 27.3346 53.6466 35.9812C53.6466 44.515 46.7669 51.4699 38.2707 51.6579C38.1579 51.6579 38.0827 51.6579 37.9699 51.6579C37.8571 51.6579 37.782 51.6579 37.6692 51.6579C29.1729 51.5075 22.2932 44.5526 22.2932 35.9812ZM47.1805 86.3571H6.09023C7.78196 70.3421 21.3158 57.7857 37.7444 57.6729C37.8195 57.6729 37.8947 57.6729 37.9699 57.6729C38.0451 57.6729 38.1203 57.6729 38.1955 57.6729C46.015 57.7105 53.1579 60.6052 58.6842 65.3045C53.2707 71.1691 49.2481 78.3872 47.1805 86.3571ZM137.895 101.32C137.895 109.026 131.617 115.304 123.91 115.304H65.6391C57.9323 115.304 51.6541 109.026 51.6541 101.32V98.7631C51.6541 75.4173 70.3008 56.3195 93.4962 55.6428C93.9098 55.6804 94.3609 55.6804 94.7744 55.6804C95.188 55.6804 95.6391 55.6804 96.0526 55.6428C119.248 56.3195 137.895 75.4173 137.895 98.7631V101.32ZM142.368 86.3571C140.301 78.4248 136.353 71.3195 130.977 65.4548C136.541 60.6428 143.759 57.7481 151.654 57.6729C151.729 57.6729 151.805 57.6729 151.88 57.6729C151.955 57.6729 152.03 57.6729 152.105 57.6729C168.534 57.7857 182.068 70.3421 183.759 86.3571H142.368Z" fill="#0689F4"/>
</svg>
