<svg width="179" height="155" viewBox="0 0 179 155" fill="none" xmlns="http://www.w3.org/2000/svg">
<path d="M169.561 16.9099H166.326V9.69958C166.323 7.19688 165.328 4.79742 163.558 3.02775C161.789 1.25807 159.389 0.262723 156.887 0.260132H146.748C144.245 0.263093 141.846 1.2586 140.077 3.02824C138.308 4.79788 137.312 7.19712 137.31 9.69958V34.1722H111.219V33.3947C111.239 31.1576 110.433 28.9918 108.955 27.3119C107.478 25.6319 105.433 24.5558 103.212 24.2895C101.978 24.1728 100.734 24.3138 99.5587 24.7036C98.3829 25.0933 97.301 25.7233 96.3817 26.5536C96.2242 26.6981 96.0717 26.8472 95.9244 27.0011C95.7781 26.8472 95.6256 26.6981 95.4671 26.5536C94.5489 25.7213 93.4669 25.0899 92.2906 24.7001C91.1142 24.3102 89.8693 24.1703 88.6358 24.2895C86.5187 24.5067 84.5558 25.4958 83.1217 27.0682C82.2991 26.1825 81.3034 25.4752 80.1963 24.9899C79.0892 24.5047 77.8943 24.252 76.6855 24.2474C75.4768 24.2428 74.28 24.4865 73.1692 24.9633C72.0585 25.4401 71.0574 26.1398 70.2281 27.0192C69.009 25.73 67.4308 24.8365 65.698 24.4545C63.9652 24.0726 62.1577 24.2198 60.5095 24.8771C58.8613 25.5344 57.4485 26.6714 56.4541 28.141C55.4596 29.6105 54.9294 31.3448 54.932 33.1192V34.1722H41.6916V9.69958C41.6887 7.197 40.6932 4.79775 38.9236 3.02815C37.154 1.25855 34.7548 0.263093 32.2522 0.260132H22.1135C19.6108 0.262723 17.2113 1.25807 15.4417 3.02775C13.672 4.79742 12.6766 7.19688 12.674 9.69958V16.9099H9.43945C6.93686 16.9129 4.53762 17.9084 2.76802 19.678C0.998423 21.4476 0.00296077 23.8468 0 26.3494L0 67.6914C0.00296077 70.194 0.998423 72.5932 2.76802 74.3628C4.53762 76.1324 6.93686 77.1279 9.43945 77.1308H12.674V84.3412C12.6766 86.8439 13.672 89.2433 15.4417 91.013C17.2113 92.7827 19.6108 93.778 22.1135 93.7806H32.2522C34.7548 93.7777 37.154 92.7822 38.9236 91.0126C40.6932 89.243 41.6887 86.8438 41.6916 84.3412V59.8685H54.9586C54.9586 59.9217 54.9586 59.9762 54.967 60.0293C54.9491 60.1348 54.9384 60.2413 54.9348 60.3482V70.4169C54.9378 74.8729 56.0673 79.2557 58.2184 83.1581L67.7837 100.485V152.293C67.7837 152.942 68.0415 153.564 68.5005 154.023C68.9594 154.482 69.5819 154.74 70.2309 154.74H108.772C109.421 154.74 110.043 154.482 110.502 154.023C110.961 153.564 111.219 152.942 111.219 152.293V100.622L121.245 86.1703C123.088 83.5213 124.074 80.3706 124.069 77.1434V59.8643H137.311V84.337C137.314 86.8395 138.309 89.2387 140.078 91.0083C141.848 92.778 144.247 93.7735 146.749 93.7764H156.888C159.391 93.7739 161.79 92.7785 163.56 91.0088C165.329 89.2392 166.325 86.8397 166.327 84.337V77.1308H169.562C172.065 77.1279 174.464 76.1324 176.233 74.3628C178.003 72.5932 178.998 70.194 179.001 67.6914V26.3494C178.998 23.8465 178.003 21.4471 176.233 19.6775C174.463 17.9078 172.063 16.9125 169.561 16.9099ZM98.3717 33.1234C98.3717 32.5676 98.4881 32.018 98.7135 31.5099C98.939 31.0019 99.2684 30.5468 99.6806 30.1739C100.093 29.801 100.578 29.5186 101.106 29.345C101.634 29.1714 102.193 29.1103 102.746 29.1658C103.758 29.3087 104.683 29.8192 105.343 30.5999C106.003 31.3806 106.352 32.377 106.325 33.3989V34.1764H98.134C98.291 33.8477 98.3723 33.4878 98.3717 33.1234ZM89.1014 29.1658C89.2343 29.1532 89.3685 29.1463 89.5 29.1463C90.5547 29.1466 91.5661 29.5658 92.3119 30.3115C93.0576 31.0573 93.4768 32.0687 93.4772 33.1234C93.4766 33.4878 93.5578 33.8477 93.7149 34.1764H89.5C88.119 34.1779 86.7572 34.5011 85.5228 35.1204V33.3989C85.4953 32.377 85.8448 31.3806 86.5049 30.5999C87.1649 29.8192 88.0892 29.3087 89.1014 29.1658ZM93.4772 59.3903C93.4772 60.4451 93.0581 61.4567 92.3123 62.2025C91.5664 62.9484 90.5548 63.3674 89.5 63.3674C88.4452 63.3674 87.4336 62.9484 86.6877 62.2025C85.9419 61.4567 85.5228 60.4451 85.5228 59.3903V50.8892C86.8382 51.5661 88.2961 51.9195 89.7755 51.9198H93.4772V59.3903ZM76.6526 29.1463C77.7068 29.1477 78.7174 29.5673 79.4627 30.3129C80.208 31.0584 80.6272 32.0692 80.6283 33.1234V59.3903C80.6382 59.9187 80.5427 60.4439 80.3473 60.935C80.1519 61.4261 79.8606 61.8734 79.4904 62.2506C79.1201 62.6279 78.6784 62.9275 78.1911 63.1321C77.7037 63.3366 77.1804 63.442 76.6519 63.442C76.1233 63.442 75.6 63.3366 75.1127 63.1321C74.6253 62.9275 74.1836 62.6279 73.8133 62.2506C73.4431 61.8734 73.1518 61.4261 72.9564 60.935C72.761 60.4439 72.6655 59.9187 72.6754 59.3903V33.1234C72.6765 32.0689 73.0959 31.058 73.8415 30.3124C74.5871 29.5667 75.5981 29.1474 76.6526 29.1463ZM59.8266 33.1234C59.8266 32.0686 60.2456 31.057 60.9914 30.3111C61.7373 29.5653 62.7489 29.1463 63.8037 29.1463C64.8585 29.1463 65.8701 29.5653 66.616 30.3111C67.3618 31.057 67.7809 32.0686 67.7809 33.1234V59.3903C67.7809 60.4451 67.3618 61.4567 66.616 62.2025C65.8701 62.9484 64.8585 63.3674 63.8037 63.3674C62.7489 63.3674 61.7373 62.9484 60.9914 62.2025C60.2456 61.4567 59.8266 60.4451 59.8266 59.3903V33.1234ZM9.43945 72.2363C8.23452 72.2348 7.07936 71.7555 6.22734 70.9035C5.37533 70.0515 4.89601 68.8963 4.89453 67.6914V26.3494C4.89601 25.1444 5.37533 23.9893 6.22734 23.1373C7.07936 22.2853 8.23452 21.8059 9.43945 21.8045H12.674V72.2363H9.43945ZM36.7971 84.3412C36.7956 85.5461 36.3163 86.7013 35.4643 87.5533C34.6123 88.4053 33.4571 88.8846 32.2522 88.8861H22.1135C20.9084 88.885 19.7531 88.4058 18.901 87.5537C18.0489 86.7016 17.5697 85.5462 17.5686 84.3412V9.69958C17.5697 8.49454 18.0489 7.33916 18.901 6.48707C19.7531 5.63497 20.9084 5.15577 22.1135 5.15466H32.2522C33.4571 5.15614 34.6123 5.63546 35.4643 6.48747C36.3163 7.33949 36.7956 8.49465 36.7971 9.69958V84.3412ZM41.6916 39.071H54.932V54.9698H41.6916V39.071ZM119.173 77.1476C119.175 79.3781 118.491 81.5551 117.216 83.3847L106.755 98.4598C106.471 98.8706 106.318 99.3585 106.319 99.8583V149.848H72.6754V99.8555C72.6754 99.4417 72.5705 99.0346 72.3705 98.6724L62.5004 80.7934C60.7487 77.6152 59.8289 74.0458 59.8266 70.4169V67.3082C61.524 68.1695 63.4548 68.4579 65.3299 68.1302C67.2049 67.8025 68.9234 66.8763 70.2281 65.4902C71.0536 66.3655 72.0491 67.0628 73.1538 67.5395C74.2584 68.0161 75.4488 68.2619 76.6519 68.2619C77.8549 68.2619 79.0453 68.0161 80.1499 67.5395C81.2546 67.0628 82.2502 66.3655 83.0756 65.4902C83.9011 66.3655 84.8968 67.0629 86.0016 67.5395C87.1063 68.0162 88.2968 68.262 89.5 68.262C90.7032 68.262 91.8937 68.0162 92.9984 67.5395C94.1032 67.0629 95.0989 66.3655 95.9244 65.4902C97.1436 66.779 98.7217 67.6721 100.454 68.0537C102.187 68.4354 103.994 68.288 105.642 67.6308C107.29 66.9736 108.702 65.8367 109.697 64.3675C110.691 62.8983 111.221 61.1644 111.219 59.3903V49.4725C111.219 48.8235 110.961 48.201 110.502 47.7421C110.043 47.2831 109.421 47.0253 108.772 47.0253H89.7797C88.7577 47.0528 87.7614 46.7033 86.9807 46.0433C86.2 45.3832 85.6895 44.459 85.5466 43.4467C85.534 43.3222 85.5284 43.1978 85.527 43.0747V43.0216C85.5344 41.9722 85.9561 40.9683 86.7002 40.2283C87.4443 39.4884 88.4506 39.0724 89.5 39.071H108.231L108.67 39.0975H108.698C111.514 39.2189 114.174 40.4218 116.126 42.4557C118.077 44.4896 119.169 47.1979 119.173 50.0165V77.1462V77.1476ZM98.3717 51.9198H106.325V59.3903C106.335 59.9187 106.239 60.4439 106.044 60.935C105.848 61.4261 105.557 61.8734 105.187 62.2506C104.816 62.6279 104.375 62.9275 103.887 63.1321C103.4 63.3366 102.877 63.442 102.348 63.442C101.82 63.442 101.296 63.3366 100.809 63.1321C100.322 62.9275 99.8799 62.6279 99.5096 62.2506C99.1394 61.8734 98.8481 61.4261 98.6527 60.935C98.4573 60.4439 98.3618 59.9187 98.3717 59.3903V51.9198ZM124.068 54.9698V50.0137C124.071 45.9349 122.495 42.0134 119.67 39.071H137.31V54.9698H124.068ZM161.431 84.337C161.43 85.5419 160.951 86.6971 160.099 87.5491C159.247 88.4011 158.091 88.8804 156.887 88.8819H146.748C145.543 88.8804 144.388 88.4011 143.536 87.5491C142.684 86.6971 142.204 85.5419 142.203 84.337V9.69958C142.204 8.49465 142.684 7.33949 143.536 6.48747C144.388 5.63546 145.543 5.15614 146.748 5.15466H156.887C158.091 5.15614 159.247 5.63546 160.099 6.48747C160.951 7.33949 161.43 8.49465 161.431 9.69958V84.3412V84.337ZM174.105 67.6914C174.104 68.8963 173.625 70.0515 172.773 70.9035C171.921 71.7555 170.765 72.2348 169.561 72.2363H166.326V21.8045H169.561C170.765 21.8059 171.921 22.2853 172.773 23.1373C173.625 23.9893 174.104 25.1444 174.105 26.3494V67.6914Z" fill="#0689F4"/>
</svg>
