<svg width="132" height="160" viewBox="0 0 132 160" fill="none" xmlns="http://www.w3.org/2000/svg">
<path d="M19.7241 0C8.8 0 0 8.75472 0 19.6226V140.377C0 151.245 8.8 160 19.7241 160H112.276C123.2 160 132 151.245 132 140.377V19.6226C132 8.75472 123.2 0 112.276 0H19.7241ZM19.7241 9.0566H112.276C118.193 9.0566 122.897 13.7358 122.897 19.6226V140.377C122.897 146.264 118.193 150.943 112.276 150.943H19.7241C13.8069 150.943 9.10345 146.264 9.10345 140.377V19.6226C9.10345 13.7358 13.8069 9.0566 19.7241 9.0566ZM19.7241 19.6226V42.2642H112.276V19.6226H19.7241ZM25.7931 63.3962C23.2138 63.3962 21.2414 65.3585 21.2414 67.9245C21.2414 70.4906 23.2138 72.4528 25.7931 72.4528H103.172C105.752 72.4528 107.724 70.4906 107.724 67.9245C107.724 65.3585 105.752 63.3962 103.172 63.3962H25.7931ZM25.7931 86.0377C23.2138 86.0377 21.2414 88 21.2414 90.566C21.2414 93.1321 23.2138 95.0943 25.7931 95.0943H103.172C105.752 95.0943 107.724 93.1321 107.724 90.566C107.724 88 105.752 86.0377 103.172 86.0377H25.7931ZM25.7931 108.679C23.2138 108.679 21.2414 110.642 21.2414 113.208C21.2414 115.774 23.2138 117.736 25.7931 117.736H66C68.5793 117.736 70.5517 115.774 70.5517 113.208C70.5517 110.642 68.5793 108.679 66 108.679H25.7931Z" fill="#0689F4"/>
</svg>
