<svg width="25" height="31" viewBox="0 0 25 31" fill="none" xmlns="http://www.w3.org/2000/svg">
<path d="M3.91092 0.625C1.88333 0.625 0.25 2.25283 0.25 4.27359V26.7264C0.25 28.7472 1.88333 30.375 3.91092 30.375H21.0891C23.1167 30.375 24.75 28.7472 24.75 26.7264V4.27359C24.75 2.25283 23.1167 0.625 21.0891 0.625H3.91092ZM3.91092 2.30896H21.0891C22.1874 2.30896 23.0603 3.17901 23.0603 4.27359V26.7264C23.0603 27.821 22.1874 28.691 21.0891 28.691H3.91092C2.81264 28.691 1.93966 27.821 1.93966 26.7264V4.27359C1.93966 3.17901 2.81264 2.30896 3.91092 2.30896ZM3.91092 4.27359V8.48349H21.0891V4.27359H3.91092ZM5.03736 12.4127C4.55862 12.4127 4.19253 12.7776 4.19253 13.2547C4.19253 13.7318 4.55862 14.0967 5.03736 14.0967H19.3994C19.8782 14.0967 20.2443 13.7318 20.2443 13.2547C20.2443 12.7776 19.8782 12.4127 19.3994 12.4127H5.03736ZM5.03736 16.6226C4.55862 16.6226 4.19253 16.9875 4.19253 17.4646C4.19253 17.9417 4.55862 18.3066 5.03736 18.3066H19.3994C19.8782 18.3066 20.2443 17.9417 20.2443 17.4646C20.2443 16.9875 19.8782 16.6226 19.3994 16.6226H5.03736ZM5.03736 20.8325C4.55862 20.8325 4.19253 21.1974 4.19253 21.6745C4.19253 22.1517 4.55862 22.5165 5.03736 22.5165H12.5C12.9787 22.5165 13.3448 22.1517 13.3448 21.6745C13.3448 21.1974 12.9787 20.8325 12.5 20.8325H5.03736Z" fill="white"/>
</svg>
